<svg xmlns="http://www.w3.org/2000/svg" viewBox="0 0 307.04 696.2"><defs><style>.cls-1{fill:#385459;}.cls-2{fill:#eaa732;}.cls-3{fill:#ffd62c;}.cls-4,.cls-7{fill:#cecdb6;}.cls-5{fill:#fff;opacity:0.5;}.cls-6{fill:#f71e1e;}.cls-7{opacity:0.2;}.cls-8{fill:#231f20;}</style></defs><title>car_taxi</title><g id="图层_2" data-name="图层 2"><g id="Layer_1" data-name="Layer 1"><path class="cls-1" d="M298.83,607.47c-2.13,18.42-5,32.72-8.77,39.7C275.7,673.63,155.59,672,155.59,672c-20.65.45-117.78,1.3-131.1-21.89-4.17-7.25-7.45-22.73-10-42.64H11.82c2.88,31.2,6.94,56.72,12.67,66.69,13.32,23.2,110.45,22.34,131.1,21.89,0,0,120.11,1.63,134.47-24.82,5.32-9.79,8.78-34,11-63.76Z"/><path class="cls-1" d="M267.62,14.34C254.07-2.14,161.65,0,153.35.21,145.06,0,52.64-2.14,39.09,14.34,24.89,31.58,0,63.5,0,100.06V126C0,89.42,24.89,57.5,39.09,40.25c13.55-16.47,106-14.35,114.26-14.12,8.3-.23,100.72-2.35,114.27,14.12C281.81,57.5,306.71,89.42,306.71,126V100.06C306.71,63.5,281.81,31.58,267.62,14.34Z"/><path class="cls-2" d="M307,114.61C307,78,282.15,46.13,268,28.88,254.4,12.41,162,14.53,153.69,14.75,145.39,14.53,53,12.41,39.42,28.88,25.23,46.13.33,78,.33,114.61V411.45h0s0,218.76,20.15,253.09c13.61,23.19,112.87,22.34,134,21.89,0,0,122.74,1.63,137.42-24.83,17.95-32.34,15.23-222,14.72-250.15H307Z"/><path class="cls-3" d="M247.08,254C236,243.3,71.4,243.3,60.29,254c-13,12.55-6.31,220.63,3.55,231.87,7.75,8.83,171.94,8.83,179.69,0C253.4,474.64,260.11,266.56,247.08,254Z"/><path class="cls-3" d="M250.85,76.7c-12.29-44.07-97.21-42.51-97.21-42.51S68.72,32.63,56.43,76.7C49.9,100.12,42.12,181.49,42.12,181.49s20.89-4.62,59.5-10.87c23.71-3.84,80.33-3.84,104,0,38.61,6.25,59.59,10.87,59.59,10.87S257.38,100.12,250.85,76.7Z"/><path class="cls-3" d="M258.12,538.51s-32.2,7.94-48.88,8.81c-24.48,1.29-55.16,2.76-55.16,2.76s-30.69-1.47-55.17-2.76C82.23,546.45,50,538.51,50,538.51s-.57,102.36,4.71,113.06c10.59,21.5,99.34,21.5,99.34,21.5s88.74,0,99.33-21.5C258.69,640.87,258.12,538.51,258.12,538.51Z"/><path class="cls-1" d="M42.56,190.56C36.37,194.65,57,243.65,57,243.65S121,238,149.29,238c80.12,0,95.33,9.82,100.22,5.68s18.6-47.1,16.17-51c-5.38-8.64-58.21-15.85-109.61-16C95.91,176.4,53.31,183.45,42.56,190.56Z"/><path class="cls-1" d="M247.68,492.5c-9,0-21,3-46.89,4.85-24.63,1.77-47.44,2.33-47.44,2.33s-22.81-.56-47.43-2.33C80,495.5,68,492.54,59,492.5c-9.25,0-20.61,36.46-15.19,40,2.48,1.6,24.8,6.06,48.86,9.06,28.45,3.56,60.65,3.26,60.65,3.26s32.21.3,60.66-3.26c24.06-3,46.38-7.46,48.86-9.06C268.28,529,256.92,492.47,247.68,492.5Z"/><path class="cls-1" d="M18.35,198.78c-5,2.21-1.5,142.07-1.5,157,0,5,25.49,7,26.65.7s4.85-102.53,3.24-113C42.43,215.52,24.62,196,18.35,198.78Z"/><path class="cls-1" d="M18.16,370.76c3.44-5.13,23.45-3.18,24.27,0s7.28,113.28,4.66,120-17.78,45.56-23.36,41.07S13.28,378,18.16,370.76Z"/><path class="cls-1" d="M288.59,198.78c5,2.21,1.51,142.07,1.51,157,0,5-25.5,7-26.65.7s-4.86-102.53-3.25-113C264.51,215.52,282.32,196,288.59,198.78Z"/><path class="cls-1" d="M288.79,370.76c-3.45-5.13-23.46-3.18-24.28,0s-7.28,113.28-4.66,120,17.78,45.56,23.36,41.07S293.67,378,288.79,370.76Z"/><path class="cls-1" d="M226.88,34.82c.38-3.46.65-9.25,4.87-11,4.42-1.84,12-.74,16.86-.29,11.23,1,19.19,7.74,23.86,16.36,2.1,3.88,6.9,24-2.72,22.55l-.66.57c-3-2-4.88-6.28-7.67-8.91a34.3,34.3,0,0,0-10.5-6.64c-5.22-2.22-9.42-4.11-15.2-4.61C229,42.24,226.18,41.23,226.88,34.82Z"/><path class="cls-4" d="M224.9,38.28c.38-3.46.65-9.26,4.87-11,4.42-1.84,12-.75,16.85-.29,11.23,1,19.2,7.74,23.87,16.36,2.1,3.88,6.9,24-2.72,22.54l-.67.58c-3-2-4.87-6.29-7.67-8.92a34.64,34.64,0,0,0-10.49-6.64c-5.22-2.21-9.43-4.1-15.2-4.61C227,45.7,224.19,44.69,224.9,38.28Z"/><path class="cls-5" d="M254.55,32.3c.74,1.38.41,5.48-1.31,6.57-1.89,1.18-6,.12-7.94-.22-4.17-.73-12.26.21-14.13-4-2.7-6.16,5.74-5.82,9.84-5.47,3.28.28,11,.93,13.3,3.09.39.36.57,1.41.57,1.23Z"/><path class="cls-1" d="M80.06,34.82c-.38-3.46-.65-9.25-4.87-11-4.42-1.84-12-.74-16.85-.29-11.23,1-19.2,7.74-23.87,16.36-2.1,3.88-6.9,24,2.73,22.55l.66.57c3-2,4.87-6.28,7.67-8.91A34.26,34.26,0,0,1,56,47.44c5.22-2.22,9.43-4.11,15.2-4.61C77.92,42.24,80.77,41.23,80.06,34.82Z"/><path class="cls-4" d="M82.05,38.28c-.38-3.46-.65-9.26-4.88-11-4.42-1.84-12-.75-16.85-.29-11.23,1-19.2,7.74-23.87,16.36-2.1,3.88-6.89,24,2.73,22.54l.66.58c3-2,4.87-6.29,7.67-8.92A34.56,34.56,0,0,1,58,50.89c5.22-2.21,9.42-4.1,15.19-4.61C79.91,45.7,82.75,44.69,82.05,38.28Z"/><path class="cls-5" d="M52.39,32.3c-.74,1.38-.41,5.48,1.31,6.57,1.9,1.18,6,.12,7.94-.22,4.18-.73,12.26.21,14.13-4,2.71-6.16-5.74-5.82-9.84-5.47-3.27.28-11,.93-13.3,3.09-.38.36-.56,1.41-.57,1.23Z"/><path class="cls-6" d="M68.41,674.82c-.58-6.86-3.25-7.52-9.42-9.43-5.7-1.76-11.38-4.62-17.06-6.36-4.34-1.32-13-4.75-17.36-1.92-2.23,1.43-3.18,4.74-3.6,8.08,6.17,9.2,26.06,14.5,48.89,17.52C69.52,679.83,68.57,676.66,68.41,674.82Z"/><path class="cls-6" d="M243.54,672.72c.58-6.85,3.26-7.51,9.42-9.42,5.71-1.76,11.39-4.62,17.07-6.36,4.33-1.32,13-4.76,17.35-1.93,2.23,1.44,3.19,4.75,3.6,8.09-6.16,9.2-26.06,14.5-48.88,17.52C242.43,677.74,243.38,674.57,243.54,672.72Z"/><polygon class="cls-7" points="110.12 177.97 88.67 241.1 105.53 239.91 134.62 176.85 110.12 177.97"/><polygon class="cls-7" points="132.98 238.38 173.65 176.61 198.94 178.33 157.84 238.01 132.98 238.38"/><polygon class="cls-7" points="189.45 238.93 223.75 180.86 233.14 182.22 198.94 239.5 189.45 238.93"/><polygon class="cls-7" points="86.11 180.16 57.01 243.65 64.4 243.02 96.26 179.08 86.11 180.16"/><rect class="cls-8" x="136.12" y="85.41" width="13.88" height="13.88"/><rect class="cls-8" x="150.83" y="99.29" width="13.88" height="13.88"/><rect class="cls-8" x="165.11" y="85.41" width="13.88" height="13.88"/><rect class="cls-8" x="121.56" y="99.29" width="13.88" height="13.88"/><rect class="cls-8" x="178.99" y="99.29" width="13.88" height="13.88"/><rect class="cls-8" x="107.5" y="85.41" width="13.88" height="13.88"/><rect class="cls-8" x="192.58" y="85.41" width="13.88" height="13.88"/><rect class="cls-8" x="135.59" y="607.47" width="13.88" height="13.88"/><rect class="cls-8" x="150.3" y="593.59" width="13.88" height="13.88"/><rect class="cls-8" x="164.58" y="607.47" width="13.88" height="13.88"/><rect class="cls-8" x="121.03" y="593.59" width="13.88" height="13.88"/><rect class="cls-8" x="178.45" y="593.59" width="13.88" height="13.88"/><rect class="cls-8" x="106.97" y="607.47" width="13.88" height="13.88"/><rect class="cls-8" x="192.04" y="607.47" width="13.88" height="13.88"/></g></g></svg>