<svg xmlns="http://www.w3.org/2000/svg" viewBox="0 0 314.07 391.15"><defs><style>.cls-1{fill:#81bc3e;}.cls-2{fill:#9cdb4b;}.cls-3{fill:#385459;}.cls-4,.cls-6{fill:#cecdb6;}.cls-5{fill:#fff;opacity:0.5;}.cls-6{opacity:0.2;}.cls-7{fill:#f71e1e;}</style></defs><title>car_mini</title><g id="图层_2" data-name="图层 2"><g id="Layer_1" data-name="Layer 1"><path class="cls-1" d="M276.32,4.05C259.52-.31,54.55-.31,37.75,4.05,10.59,11.12,0,48.56,0,48.56S1.61,317,4.16,327.32c11,44.45,44.76,55.54,59.07,59.18,20,5.09,166,6.6,186.07,1.51,14.3-3.64,49.65-16.24,60.61-60.69,2.55-10.35,4.16-278.76,4.16-278.76S303.48,11.12,276.32,4.05Z"/><path class="cls-2" d="M257.7,361.35c0,4.44-4.06,8-9,8H65.42c-5,0-9.05-3.61-9.05-8V162.42c0-4.44,4.05-8,9.05-8H248.65c5,0,9,3.61,9,8Z"/><path class="cls-3" d="M266.94,94.32C248.33,72.69,157,76.71,157,76.71s-91.29-4-109.9,17.61c-4.66,5.41,6.48,46.67,16.1,50.79,7,3,93.8,0,93.8,0s86.77,3,93.81,0C260.46,141,271.6,99.73,266.94,94.32Z"/><path class="cls-3" d="M24.5,99.77c-4.64,2.42-10,160.45-4,168.86s24.05,14,25.56,4.48,1.51-112.31,0-121.28S32.29,95.73,24.5,99.77Z"/><path class="cls-3" d="M287.22,99.77c4.65,2.35,10.06,156.44,4,164.64s-24.05,13.67-25.56,4.37-1.5-109.5,0-118.25S279.43,95.82,287.22,99.77Z"/><path class="cls-3" d="M67.79,36.9c-.43-4.53-.74-12.12-5.56-14.43-5-2.41-13.68-1-19.24-.38C30.16,23.45,21.06,32.22,15.73,43.51,13.34,48.59,7.86,75,18.85,73l.75.76c3.44-2.65,5.57-8.23,8.76-11.67a39.26,39.26,0,0,1,12-8.7c6-2.9,10.76-5.37,17.35-6C65.35,46.61,68.6,45.29,67.79,36.9Z"/><path class="cls-4" d="M70.06,41.43c-.44-4.53-.74-12.12-5.57-14.43-5-2.41-13.68-1-19.24-.39C32.43,28,23.33,36.75,18,48c-2.4,5.08-7.88,31.45,3.11,29.51l.75.76c3.44-2.65,5.57-8.24,8.76-11.68a39,39,0,0,1,12-8.69c6-2.9,10.76-5.38,17.35-6C67.61,51.14,70.86,49.82,70.06,41.43Z"/><path class="cls-5" d="M36.2,33.59c-.85,1.82-.47,7.19,1.5,8.6,2.16,1.56,6.85.16,9.06-.28,4.77-1,14,.27,16.13-5.3C66,28.54,56.34,29,51.66,29.44c-3.74.37-12.61,1.23-15.19,4.05-.44.47-.64,1.85-.65,1.61Z"/><path class="cls-3" d="M246.57,36.9c.43-4.53.74-12.12,5.56-14.43,5.05-2.41,13.68-1,19.25-.38,12.82,1.36,21.92,10.13,27.25,21.42C301,48.59,306.5,75,295.52,73l-.76.76c-3.44-2.65-5.56-8.23-8.76-11.67a39,39,0,0,0-12-8.7c-6-2.9-10.76-5.37-17.35-6C249,46.61,245.77,45.29,246.57,36.9Z"/><path class="cls-4" d="M244.31,41.43c.43-4.53.74-12.12,5.56-14.43,5-2.41,13.68-1,19.25-.39C281.94,28,291,36.75,296.37,48c2.39,5.08,7.87,31.45-3.12,29.51l-.75.76c-3.44-2.65-5.56-8.24-8.76-11.68a39.07,39.07,0,0,0-12-8.69c-6-2.9-10.76-5.38-17.35-6C246.75,51.14,243.5,49.82,244.31,41.43Z"/><path class="cls-5" d="M278.17,33.59c.84,1.82.47,7.19-1.5,8.6-2.16,1.56-6.86.16-9.06-.28-4.77-1-14,.27-16.14-5.3C248.38,28.54,258,29,262.7,29.44c3.74.37,12.61,1.23,15.19,4.05.44.47.65,1.85.65,1.61Z"/><path class="cls-3" d="M254.68,13.22a2.27,2.27,0,0,1-2.26,2.27H62.73a2.27,2.27,0,0,1-2.26-2.27h0A2.26,2.26,0,0,1,62.73,11H252.42a2.26,2.26,0,0,1,2.26,2.26Z"/><path class="cls-3" d="M264.73,3.15c0,1.75-1.14,3.16-2.55,3.16H48.59C47.18,6.31,46,4.9,46,3.15h0A2.9,2.9,0,0,1,48.59,0H262.18a2.9,2.9,0,0,1,2.55,3.15Z"/><polygon class="cls-6" points="83.34 146.41 129.61 76.42 139.67 76.42 99.14 146.41 83.34 146.41"/><polygon class="cls-6" points="169.84 76.42 126.6 145.97 166.31 145.4 201.52 77.19 169.84 76.42"/><polygon class="cls-6" points="184.41 145.89 233.14 80.64 241.72 82.4 201.52 146.45 184.41 145.89"/><path class="cls-7" d="M46.89,373.19c2.81-6.38.75-8.26-3.81-12.94-4.21-4.33-7.87-9.62-12.08-13.92-3.21-3.27-9.21-10.5-14.48-10.11-2.68.19-5.13,2.67-7.12,5.44,1.22,9,15.19,27.74,36.1,38.51C46.6,377.44,46.14,374.9,46.89,373.19Z"/><path class="cls-7" d="M271.16,370.61c-3.37-6.09-1.49-8.15,2.63-13.22,3.8-4.7,7-10.3,10.77-14.95,2.9-3.55,8.22-11.3,13.51-11.39,2.68-.05,6.86,2.85,9.09,5.43,0,11.2-13.87,29.34-32.83,41C273,374.85,272.07,372.25,271.16,370.61Z"/></g></g></svg>