<svg xmlns="http://www.w3.org/2000/svg" viewBox="0 0 489.91 829.37"><defs><style>.cls-1,.cls-10{fill:#cecdb6;}.cls-2{fill:#e2e0c9;}.cls-3{fill:#fff;}.cls-4{fill:#385459;}.cls-5{fill:#40413c;}.cls-6{fill:#95968d;}.cls-7{fill:#4848cc;}.cls-8{fill:#2974e2;}.cls-9{fill:#f71e1e;}.cls-10{opacity:0.2;}</style></defs><title>car_embulas</title><g id="图层_2" data-name="图层 2"><g id="Layer_1" data-name="Layer 1"><path class="cls-1" d="M443.5,241.94c-2-39.57-32.86-174.15-45.11-194s-38.63-34.82-73.5-42.28S209-1.85,174.11,5.61,112.86,28,100.61,47.89,57.54,202.37,55.5,241.94c-7.9,153-.13,549.61,1.76,570.75s13.19,16.17,13.19,16.17h358.1s11.31,5,13.19-16.17S451.4,394.89,443.5,241.94Z"/><rect class="cls-2" x="75.64" y="286.39" width="337.67" height="521.23"/><rect class="cls-3" x="120.52" y="286.39" width="253.25" height="521.23"/><path class="cls-4" d="M376.14,129.06c-11.53-23.58-123-33.19-131.4-33.89v0l-.27,0-.26,0v0c-8.44.7-119.87,10.31-131.4,33.89C94.86,165.75,72.29,272,76.05,290.51c0,0,46.42,8.22,46.42,7.19l121.74.09h.53l121.74-.09c0,1,46.41-7.19,46.41-7.19C416.66,272,394.09,165.75,376.14,129.06Z"/><path class="cls-5" d="M376.14,129.06c-11.53-23.58-123-33.19-131.4-33.89v0l-.27,0-.26,0v0c-8.44.7-119.87,10.31-131.4,33.89C94.86,165.75,72.29,272,76.05,290.51l7.17,1.25c3.85-37.15,20.84-113.26,34.88-143.16,11.07-23.58,118-33.19,126.12-33.89v0l.25,0,.26,0v0c8.1.7,115,10.31,126.12,33.89,14,29.9,31,106,34.88,143.16l7.16-1.25C416.66,272,394.09,165.75,376.14,129.06Z"/><path class="cls-5" d="M142.19,15.51s7,1.47,9.79,12.78,0,22.62,0,22.62S219,42.13,247.14,40.74c44-2.17,103.68,10.17,103.68,10.17s-8.56-11.27-5.65-21.59a21.32,21.32,0,0,1,11.65-13.81S338.75.44,261.3,0C169.89-.5,142.19,15.51,142.19,15.51Z"/><path class="cls-6" d="M142.19,15.51s-15.65.94-27,10-14.62,22.43-14.62,22.43,10.22,3,13.37,9.19,6.54,26.05,6.54,26.05S146.4,64,152,50.91C164.86,20.75,142.19,15.51,142.19,15.51Z"/><path class="cls-4" d="M142.19,15.51s-15.65.94-27,10-14.62,22.43-14.62,22.43,10.22,3,13.36,9.19,6.55,26.05,6.55,26.05S146.4,64,152,50.91C164.86,20.75,142.19,15.51,142.19,15.51Zm5.49,32.34c-4.57,10.7-25.75,26.37-25.75,26.37S119.14,58,116.57,52.9s-10.94-7.52-10.94-7.52,2.72-11,12-18.36,22.06-8.14,22.06-8.14S158.22,23.17,147.68,47.85Z"/><path class="cls-6" d="M357.2,15.51s15.65.94,27,10,14.62,22.43,14.62,22.43-10.23,3-13.37,9.19-6.54,26.05-6.54,26.05S353,64,347.4,50.91C334.53,20.75,357.2,15.51,357.2,15.51Z"/><path class="cls-4" d="M347.4,50.91C353,64,378.87,83.13,378.87,83.13s3.4-19.88,6.54-26,13.37-9.19,13.37-9.19-3.32-13.43-14.62-22.43-27-10-27-10S334.53,20.75,347.4,50.91Zm12.33-32s12.8.77,22.06,8.14,12,18.36,12,18.36-8.36,2.47-10.94,7.52-5.35,21.32-5.35,21.32-21.18-15.67-25.75-26.37C341.17,23.17,359.73,18.88,359.73,18.88Z"/><path class="cls-5" d="M178.15,761A23.15,23.15,0,1,1,155,737.87,23.15,23.15,0,0,1,178.15,761Z"/><circle class="cls-7" cx="155" cy="761.02" r="16.54" transform="translate(-620.8 724.87) rotate(-75.82)"/><path class="cls-8" d="M151.83,759.06c1.56-3.36,5.79-6.21,7.68-9.16l-2.41-.6c-16.24-2.16-21.46,21.92-3.7,21C153,765.5,149.46,764.17,151.83,759.06Z"/><path class="cls-5" d="M365.65,761a23.15,23.15,0,1,1-23.15-23.15A23.14,23.14,0,0,1,365.65,761Z"/><path class="cls-7" d="M359,761a16.54,16.54,0,1,1-16.54-16.54A16.54,16.54,0,0,1,359,761Z"/><path class="cls-8" d="M339.33,759.06c1.56-3.36,5.79-6.21,7.68-9.16l-2.4-.6c-16.24-2.16-21.46,21.92-3.7,21C340.52,765.5,337,764.17,339.33,759.06Z"/><path class="cls-2" d="M204.76,791.12a4.72,4.72,0,0,1-4.72,4.72h0a4.71,4.71,0,0,1-4.71-4.72v-425a4.71,4.71,0,0,1,4.71-4.71h0a4.71,4.71,0,0,1,4.72,4.71Z"/><path class="cls-2" d="M256.11,791.12a4.71,4.71,0,0,1-4.71,4.72h0a4.71,4.71,0,0,1-4.71-4.72v-425a4.71,4.71,0,0,1,4.71-4.71h0a4.71,4.71,0,0,1,4.71,4.71Z"/><path class="cls-2" d="M307.47,791.12a4.71,4.71,0,0,1-4.71,4.72h0a4.71,4.71,0,0,1-4.71-4.72v-425a4.71,4.71,0,0,1,4.71-4.71h0a4.71,4.71,0,0,1,4.71,4.71Z"/><rect class="cls-7" x="146.4" y="320.96" width="210.61" height="51.1" rx="11.31"/><rect class="cls-8" x="155.44" y="328.74" width="193.5" height="10.05"/><rect class="cls-4" x="217.47" y="320.96" width="68.48" height="51.1"/><rect class="cls-4" x="172.71" y="424.68" width="156.26" height="97.06" rx="11.31"/><polygon class="cls-9" points="281.41 464.33 259.72 464.33 259.72 442.65 241.97 442.65 241.97 464.33 220.28 464.33 220.28 482.08 241.97 482.08 241.97 503.77 259.72 503.77 259.72 482.08 281.41 482.08 281.41 464.33"/><polygon class="cls-9" points="282.75 58.48 261.06 58.48 261.06 45.28 243.31 45.28 243.31 58.48 221.62 58.48 221.62 69.28 243.31 69.28 243.31 82.47 261.06 82.47 261.06 69.28 282.75 69.28 282.75 58.48"/><path class="cls-1" d="M111.42,38.9a11.87,11.87,0,0,1,1-1.42l-.29-.87A14,14,0,0,0,111.42,38.9Z"/><path class="cls-1" d="M142.25,30.32c-2.65-14.63-23.86-.56-29.87,7.16l1,2.9c7.82,3.38,7,12.63,17,5.8C134.94,43,143.38,36.57,142.25,30.32Z"/><path class="cls-1" d="M384.75,41c-5.95-4.4-8.12-10.78-16.48-12.42-9.85-1.94-17.38,2.78-12.91,13.05,2.28,5.24,9.73,14.19,15.55,15.09,6.44,1,10.89-9.92,14.47-15.09Z"/><polygon class="cls-10" points="285.95 119.62 217.47 243.3 233.03 243.3 317.04 125.14 285.95 119.62"/><polygon class="cls-10" points="200.04 120.07 142.19 269.68 221.62 117.11 200.04 120.07"/><polygon class="cls-10" points="351.44 134.91 292.39 247.07 307.47 255.23 369.71 146.66 351.44 134.91"/><path class="cls-3" d="M120.52,301.72s4.51-80.2,126.4-77.12,126.85,77.12,126.85,77.12Z"/><polygon class="cls-5" points="404.05 271.41 435.21 256.87 489.9 258.95 488.52 266.57 437.98 263.11 410.28 282.49 404.05 271.41"/><polygon class="cls-5" points="85.86 271.41 54.7 256.87 0 258.95 1.39 266.57 51.93 263.11 79.62 282.49 85.86 271.41"/></g></g></svg>