<svg xmlns="http://www.w3.org/2000/svg" viewBox="0 0 299.1 677.33"><defs><style>.cls-1{fill:#385459;}.cls-2{fill:#b7b6a5;}.cls-3{fill:#231f20;}.cls-4,.cls-7{fill:#fff;}.cls-5{fill:#363d49;}.cls-6,.cls-9{fill:#cecdb6;}.cls-7{opacity:0.5;}.cls-8{fill:#f71e1e;}.cls-9{opacity:0.2;}.cls-10{fill:#4848cc;}.cls-11{fill:#2974e2;}.cls-12{fill:#f46f62;}</style></defs><title>car_police</title><g id="图层_2" data-name="图层 2"><g id="Layer_1" data-name="Layer 1"><path class="cls-1" d="M290.73,591c-2.07,17.93-4.84,31.84-8.53,38.63-14,25.74-130.82,24.15-130.82,24.15-20.1.44-114.59,1.27-127.55-21.29-4.06-7.06-7.25-22.12-9.77-41.49H11.5c2.8,30.36,6.75,55.19,12.33,64.89,13,22.57,107.45,21.73,127.55,21.3,0,0,116.84,1.58,130.82-24.16,5.17-9.52,8.54-33.06,10.71-62Z"/><path class="cls-2" d="M298.72,111.5c0-35.58-24.22-66.63-38-83.41-13.19-16-103.1-14-111.17-13.74-8.07-.22-98-2.28-111.17,13.74C24.54,44.87.32,75.92.32,111.5V400.3h0s0,212.83,19.6,246.23c13.25,22.56,109.82,21.73,130.35,21.29,0,0,119.4,1.59,133.69-24.15,17.46-31.47,14.81-216,14.32-243.37h.44Z"/><path class="cls-3" d="M283.27,645.21c9.15-16.49,12.78-75,14.09-130.86-8.39.24-13.88,11-25.91,10.68-7.86-.17-11-5.5-18.23-6.71-6.49-1.09-15.46,2.1-22.06,3.09-15,2.26-31.22,1.71-47,1.71-35.41,0-70.11-1.92-105.52-1.92-8,0-17.55-4.42-25.54-4.42-9.23,0-12.5,6.52-20.72,9-8.94,2.69-22.12,1.09-29.94-5.66C5,575.2,9.88,632.11,19.24,648.06c13.25,22.57,109.81,21.74,130.35,21.3C149.59,669.36,269,670.94,283.27,645.21Z"/><path class="cls-1" d="M260.37,14C247.18-2.08,157.27,0,149.2.2,141.13,0,51.21-2.08,38,14,24.22,30.73,0,61.77,0,97.35v25.22C0,87,24.22,55.94,38,39.16c13.18-16,103.1-14,111.17-13.74,8.07-.22,98-2.28,111.17,13.74,13.81,16.78,38,47.83,38,83.41V97.35C298.39,61.77,274.18,30.73,260.37,14Z"/><path class="cls-3" d="M149.9,10.82c-8.07-.21-98-2.27-111.17,13.75C24.92,41.35.7,72.4.7,108v91.23C23,180.39,52.42,170.12,81.87,167c49-5.27,85.48-5.87,106.8-3.84,30.32,2.9,85.7,12.15,110.43,32.27V108c0-35.58-24.22-66.63-38-83.41C247.88,8.55,158,10.61,149.9,10.82Z"/><path class="cls-4" d="M240.39,247.12c-10.81-10.41-170.93-10.41-181.73,0C46,259.34,52.51,461.78,62.11,472.71c7.54,8.59,167.28,8.59,174.82,0C246.53,461.78,253.06,259.34,240.39,247.12Z"/><path class="cls-5" d="M244.05,74.62c-12-42.87-94.57-41.36-94.57-41.36S66.86,31.75,54.9,74.62C48.55,97.4,41,176.57,41,176.57S61.3,172.07,98.86,166c23.07-3.73,78.16-3.73,101.23,0,37.56,6.08,58,10.58,58,10.58S250.4,97.4,244.05,74.62Z"/><path class="cls-5" d="M251.13,523.92s-31.33,7.72-47.56,8.57c-23.82,1.25-53.67,2.68-53.67,2.68s-29.85-1.43-53.67-2.68c-16.23-.85-47.56-8.57-47.56-8.57s-.55,99.58,4.58,110c10.31,20.92,96.65,20.92,96.65,20.92s86.34,0,96.65-20.92C251.68,623.5,251.13,523.92,251.13,523.92Z"/><path class="cls-1" d="M41.41,185.39c-6,4,14.06,51.66,14.06,51.66s62.2-5.53,89.77-5.53c77.95,0,92.75,9.55,97.51,5.53s18.09-45.83,15.73-49.62c-5.23-8.41-56.63-15.42-106.64-15.6C93.31,171.62,51.86,178.48,41.41,185.39Z"/><path class="cls-1" d="M241,479.16c-8.73,0-20.38,2.9-45.61,4.71-24,1.72-46.15,2.26-46.15,2.26s-22.19-.54-46.15-2.26c-25.24-1.81-36.88-4.68-45.62-4.71-9,0-20,35.47-14.78,38.86,2.41,1.55,24.13,5.89,47.54,8.82,27.67,3.46,59,3.16,59,3.16s31.33.3,59-3.16c23.41-2.93,45.12-7.27,47.54-8.82C261,514.63,250,479.12,241,479.16Z"/><path class="cls-1" d="M17.85,193.39c-4.84,2.15-1.46,138.22-1.46,152.78,0,4.88,24.8,6.78,25.93.67S47,247.1,45.48,237C41.28,209.68,24,190.68,17.85,193.39Z"/><path class="cls-1" d="M17.66,360.71c3.35-5,22.82-3.1,23.62,0s7.09,110.21,4.53,116.75-17.29,44.32-22.72,39.95S12.92,367.79,17.66,360.71Z"/><path class="cls-1" d="M280.77,193.39c4.84,2.15,1.46,138.22,1.46,152.78,0,4.88-24.8,6.78-25.92.67S251.58,247.1,253.15,237C257.34,209.68,274.67,190.68,280.77,193.39Z"/><path class="cls-1" d="M281,360.71c-3.35-5-22.82-3.1-23.62,0s-7.08,110.21-4.53,116.75,17.3,44.32,22.72,39.95S285.71,367.79,281,360.71Z"/><path class="cls-1" d="M220.73,33.88c.37-3.37.63-9,4.74-10.72,4.3-1.8,11.66-.73,16.4-.29,10.92,1,18.68,7.53,23.22,15.92,2,3.78,6.71,23.38-2.65,21.93l-.65.57c-2.93-2-4.74-6.12-7.46-8.68a33.62,33.62,0,0,0-10.21-6.46c-5.08-2.15-9.17-4-14.79-4.48C222.81,41.1,220.05,40.12,220.73,33.88Z"/><path class="cls-6" d="M218.8,37.24c.37-3.36.63-9,4.74-10.72,4.3-1.79,11.66-.72,16.4-.29,10.93,1,18.68,7.54,23.22,15.93,2,3.77,6.71,23.37-2.65,21.93l-.64.56c-2.94-2-4.75-6.12-7.47-8.68a33.62,33.62,0,0,0-10.21-6.46c-5.08-2.15-9.17-4-14.78-4.48C220.88,44.46,218.12,43.48,218.8,37.24Z"/><path class="cls-7" d="M247.65,31.42c.72,1.35.4,5.34-1.27,6.39-1.85,1.16-5.85.12-7.72-.21-4.07-.71-11.93.2-13.75-3.94-2.64-6,5.58-5.66,9.57-5.32,3.18.27,10.74.91,12.94,3,.37.36.55,1.38.55,1.2Z"/><path class="cls-1" d="M77.89,33.88c-.37-3.37-.63-9-4.74-10.72-4.3-1.8-11.65-.73-16.4-.29-10.92,1-18.67,7.53-23.21,15.92-2.05,3.78-6.71,23.38,2.65,21.93l.64.57c2.93-2,4.74-6.12,7.46-8.68a33.67,33.67,0,0,1,10.22-6.46c5.07-2.15,9.16-4,14.78-4.48C75.81,41.1,78.58,40.12,77.89,33.88Z"/><path class="cls-6" d="M79.82,37.24c-.37-3.36-.63-9-4.74-10.72-4.3-1.79-11.65-.72-16.4-.29-10.92,1-18.68,7.54-23.22,15.93-2,3.77-6.71,23.37,2.66,21.93l.64.56c2.93-2,4.74-6.12,7.46-8.68a33.74,33.74,0,0,1,10.21-6.46c5.08-2.15,9.17-4,14.79-4.48C77.74,44.46,80.51,43.48,79.82,37.24Z"/><path class="cls-7" d="M51,31.42c-.72,1.35-.4,5.34,1.28,6.39,1.84,1.16,5.84.12,7.72-.21,4.06-.71,11.93.2,13.74-3.94,2.64-6-5.57-5.66-9.56-5.32-3.19.27-10.74.91-13,3-.37.36-.55,1.38-.55,1.2Z"/><path class="cls-8" d="M66.56,656.53c-.57-6.68-3.17-7.32-9.17-9.17-5.55-1.72-11.07-4.5-16.6-6.19-4.22-1.29-12.61-4.63-16.88-1.87-2.17,1.39-3.1,4.61-3.5,7.86,6,9,25.35,14.11,47.56,17.05C67.64,661.41,66.71,658.32,66.56,656.53Z"/><path class="cls-8" d="M236.94,654.49c.57-6.67,3.17-7.31,9.17-9.17,5.55-1.71,11.07-4.5,16.6-6.18,4.22-1.29,12.61-4.63,16.88-1.88,2.17,1.4,3.1,4.61,3.51,7.87-6,8.94-25.36,14.1-47.56,17C235.86,659.37,236.79,656.28,236.94,654.49Z"/><polygon class="cls-9" points="107.14 173.15 86.27 234.56 102.67 233.41 130.97 172.06 107.14 173.15"/><polygon class="cls-9" points="129.38 231.92 168.94 171.82 193.54 173.5 153.56 231.56 129.38 231.92"/><polygon class="cls-9" points="184.31 232.46 217.69 175.96 226.82 177.28 193.54 233.01 184.31 232.46"/><polygon class="cls-9" points="83.78 175.28 55.47 237.05 62.66 236.43 93.65 174.23 83.78 175.28"/><rect class="cls-10" x="77.5" y="282.82" width="145.17" height="35.22" rx="7.79"/><rect class="cls-11" x="83.73" y="288.18" width="133.38" height="6.93"/><path class="cls-8" d="M214.55,282.82H151.9V318h62.65a7.8,7.8,0,0,0,7.8-7.79V290.61A7.8,7.8,0,0,0,214.55,282.82Z"/><rect class="cls-12" x="169.74" y="288.5" width="47.06" height="7.33"/><rect class="cls-2" x="126.48" y="282.82" width="47.2" height="35.22"/><path class="cls-4" d="M73.55,88.41H87.83a7.5,7.5,0,0,1,5.62,2.49,9.26,9.26,0,0,1,2.36,6.61,1.48,1.48,0,0,1,0,.35v.39a11.49,11.49,0,0,1-.15,1.75,11.21,11.21,0,0,1-2.88,5.89,6.05,6.05,0,0,1-4.66,1.78H77.52v14.55h-4Zm4,15.61H87.83a2.45,2.45,0,0,0,.72-.35,6.28,6.28,0,0,0,1.26-1,7.19,7.19,0,0,0,1.5-2.08,5.65,5.65,0,0,0,.53-3A5.89,5.89,0,0,0,90.36,94a4.2,4.2,0,0,0-3.21-1.29H77.52Z"/><path class="cls-4" d="M99.87,102.43c.06-.54.14-1.09.25-1.64A18,18,0,0,1,104.83,92a13,13,0,0,1,10-4c.51,0,1,0,1.53.07a11.74,11.74,0,0,1,1.52.25,15.09,15.09,0,0,1,8,4.83q3.69,3.94,3.89,12.31a20.23,20.23,0,0,1-4,12.45q-4,5.33-12,5.33-7,0-10.48-5.4c-2.34-3.61-3.51-8.22-3.51-13.86A14.39,14.39,0,0,1,99.87,102.43Zm4.22,6.26a17.73,17.73,0,0,0,.68,2.72,14.5,14.5,0,0,0,3,5.15,8.7,8.7,0,0,0,6,2.75l.57.07.57,0q4.19,0,7.48-3.9t3-11.85a13.88,13.88,0,0,0-3.08-8.13A9.23,9.23,0,0,0,114.78,92a10,10,0,0,0-1.09.07,10.16,10.16,0,0,0-1.1.21,11.07,11.07,0,0,0-6,4.06q-2.76,3.33-2.75,9.89C103.85,107,104,107.79,104.09,108.69Z"/><path class="cls-4" d="M134.09,88.41h4.31V118.2h15v4H134.09Z"/><path class="cls-4" d="M158.68,88.41h4v33.81h-4Z"/><path class="cls-4" d="M168.17,103.91q.11-1,.27-2a21.88,21.88,0,0,1,3.89-9.17q3-4.23,9.68-4.69a14.19,14.19,0,0,1,2.41.25,12.3,12.3,0,0,1,2.78.9,13,13,0,0,1,4.19,3.42,15.31,15.31,0,0,1,2.91,6.7H190a10,10,0,0,0-3.15-5.5,7.38,7.38,0,0,0-4.75-1.8h-.32a.76.76,0,0,0-.27,0,9.08,9.08,0,0,0-6.15,3.58q-2.81,3.3-3,9.49,0,7.44,2.83,10.74t6.22,3.35h.12a8.84,8.84,0,0,0,6.09-2.57,9.64,9.64,0,0,0,3-6.81H195c-.06.4-.12.81-.19,1.22a12.09,12.09,0,0,1-.28,1.27,17.73,17.73,0,0,1-4.24,7.53,10.32,10.32,0,0,1-7.93,3.42q-7.22.23-10.77-5.06A21.59,21.59,0,0,1,168,105.87C168.05,105.22,168.1,104.57,168.17,103.91Z"/><path class="cls-4" d="M200.94,88.41h21.29V92H205V103H221.6v4H205V118.2h18v4h-22Z"/><path class="cls-4" d="M223.88,599.13H210.3a7,7,0,0,1-5.35-2.48,9.39,9.39,0,0,1-2.25-6.57,2.09,2.09,0,0,1,0-.34v-.39a12.92,12.92,0,0,1,.14-1.75,11.53,11.53,0,0,1,.47-1.93,10.59,10.59,0,0,1,2.27-3.92A5.63,5.63,0,0,1,210,580H220.1V565.51h3.78Zm-3.78-15.52h-9.8a2.34,2.34,0,0,0-.69.34,6.22,6.22,0,0,0-1.2,1,7.34,7.34,0,0,0-1.43,2.06,6.24,6.24,0,0,0,.91,6.48,3.9,3.9,0,0,0,3.05,1.29h9.16Z"/><path class="cls-4" d="M198.85,585.19c-.06.54-.14,1.08-.24,1.63a18.19,18.19,0,0,1-4.48,8.71,12.08,12.08,0,0,1-9.46,4,13.94,13.94,0,0,1-1.45-.07,9.17,9.17,0,0,1-1.45-.25,14.17,14.17,0,0,1-7.63-4.8q-3.49-3.93-3.7-12.24a20.73,20.73,0,0,1,3.8-12.38q3.8-5.31,11.39-5.31a11,11,0,0,1,10,5.38q3.34,5.37,3.34,13.78C198.93,584.13,198.9,584.66,198.85,585.19Zm-4-6.22a17.39,17.39,0,0,0-.64-2.71,14.58,14.58,0,0,0-2.81-5.12,8.17,8.17,0,0,0-5.75-2.74l-.54-.06a4.93,4.93,0,0,0-.55,0c-2.65,0-5,1.3-7.11,3.88s-3.05,6.52-2.89,11.79a14.16,14.16,0,0,0,2.93,8.08,8.64,8.64,0,0,0,7.2,3.49,7.37,7.37,0,0,0,1-.07,6.18,6.18,0,0,0,1-.21,10.48,10.48,0,0,0,5.75-4q2.61-3.3,2.61-9.83C195.06,580.67,195,579.86,194.83,579Z"/><path class="cls-4" d="M166.3,599.13h-4.09V569.51H147.94v-4H166.3Z"/><path class="cls-4" d="M142.92,599.13h-3.81V565.51h3.81Z"/><path class="cls-4" d="M133.9,583.72c-.06.66-.15,1.33-.26,2a22.24,22.24,0,0,1-3.69,9.12q-2.89,4.2-9.2,4.66a11.81,11.81,0,0,1-2.29-.25,11.6,11.6,0,0,1-2.66-.9,12.43,12.43,0,0,1-4-3.4,15.47,15.47,0,0,1-2.78-6.66h4.1a10,10,0,0,0,3,5.47,6.87,6.87,0,0,0,4.52,1.79h.3a.75.75,0,0,0,.26,0q3.17-.27,5.84-3.56t2.84-9.43q0-7.41-2.7-10.68t-5.9-3.33h-.12a8.22,8.22,0,0,0-5.79,2.55,9.73,9.73,0,0,0-2.89,6.77h-4.1c.06-.4.12-.8.18-1.22s.16-.83.26-1.26a18.08,18.08,0,0,1,4-7.49,9.64,9.64,0,0,1,7.53-3.4q6.87-.23,10.25,5A22.28,22.28,0,0,1,134,581.77C134,582.41,134,583.06,133.9,583.72Z"/><path class="cls-4" d="M102.75,599.13H82.5v-3.58H98.93V584.66H83.1v-3.95H98.93v-11.2H81.86v-4h20.89Z"/></g></g></svg>