<svg xmlns="http://www.w3.org/2000/svg" viewBox="0 0 363.09 672.66"><defs><style>.cls-1{fill:#40413c;}.cls-2{fill:#5c6644;}.cls-3{fill:#6c7a51;}.cls-4{fill:#929b6d;}.cls-5{fill:#585953;}</style></defs><title>car_jeep</title><g id="图层_2" data-name="图层 2"><g id="Layer_1" data-name="Layer 1"><path class="cls-1" d="M313.53,6.85a7,7,0,0,1-7,6.85H51.6a7,7,0,0,1-7-6.85h0A7,7,0,0,1,51.6,0H306.49a7,7,0,0,1,7,6.85Z"/><path class="cls-1" d="M89.2,28.48a5.47,5.47,0,0,1-5.55,5.4h0a5.48,5.48,0,0,1-5.56-5.4V12.26a5.49,5.49,0,0,1,5.56-5.41h0a5.48,5.48,0,0,1,5.55,5.41Z"/><path class="cls-1" d="M287.41,31.11a5.48,5.48,0,0,1-5.56,5.4h0a5.48,5.48,0,0,1-5.55-5.4V14.89a5.48,5.48,0,0,1,5.55-5.41h0a5.49,5.49,0,0,1,5.56,5.41Z"/><path class="cls-2" d="M161.47,31.72s-100-8.65-114.48,0S23.54,49,22.48,67.4,18,577.82,22.48,587s7.83,32.83,39,37.25,234.51,7.52,253.41,0,26.52-18.37,27.28-47.61c.81-31.15-1.72-31.21-8.27-520.41C333.74,41.45,320.35,32,309,27.88S161.47,31.72,161.47,31.72Z"/><path class="cls-3" d="M44.56,222.76l136.71-4.33L318,222.76l-3-45.42S300.2,36.05,298,30.28s-.55-7.65-8.15-7.21c-33.1,1.91-202.1-.51-214.88,0-5.23.21-11.11-.72-13.33,10.09s-17,144.18-17,144.18Z"/><path class="cls-3" d="M305.2,593.16c0,7-6,12.72-13.34,12.72H70.68c-7.36,0-13.33-5.69-13.33-12.72V283.43c0-7,6-12.73,13.33-12.73H291.86c7.37,0,13.34,5.7,13.34,12.73Z"/><path class="cls-4" d="M265.77,177.34H96.83V58.39c0-7.93-1.29-10.81,9.72-10.81s142.91-.72,148.84,0,10.38.72,10.38,9.37Z"/><path class="cls-3" d="M125.7,157.88a3.65,3.65,0,0,1-3.71,3.6h0a3.65,3.65,0,0,1-3.7-3.6v-98a3.65,3.65,0,0,1,3.7-3.61h0a3.66,3.66,0,0,1,3.71,3.61Z"/><path class="cls-3" d="M155.34,157.88a3.65,3.65,0,0,1-3.71,3.6h0a3.65,3.65,0,0,1-3.7-3.6v-98a3.65,3.65,0,0,1,3.7-3.61h0a3.66,3.66,0,0,1,3.71,3.61Z"/><path class="cls-3" d="M185,157.88a3.65,3.65,0,0,1-3.71,3.6h0a3.65,3.65,0,0,1-3.7-3.6v-98a3.65,3.65,0,0,1,3.7-3.61h0A3.66,3.66,0,0,1,185,59.84Z"/><path class="cls-3" d="M214.62,157.88a3.65,3.65,0,0,1-3.71,3.6h0a3.65,3.65,0,0,1-3.7-3.6v-98a3.65,3.65,0,0,1,3.7-3.61h0a3.66,3.66,0,0,1,3.71,3.61Z"/><path class="cls-3" d="M244.25,157.88a3.65,3.65,0,0,1-3.7,3.6h0a3.65,3.65,0,0,1-3.7-3.6v-98a3.65,3.65,0,0,1,3.7-3.61h0a3.65,3.65,0,0,1,3.7,3.61Z"/><path class="cls-1" d="M58,230.15c-6.6,2.34.56,24.87,3.34,28.65s240.07,3.79,240.62,0,8.9-24.87,3.34-28.65S64.14,228,58,230.15Z"/><path class="cls-1" d="M319.64,231.77v19.46l6.12-3.24,36.68,3.24s3.33-9.19-5-13.51-28.34-2.16-28.34-2.16Z"/><path class="cls-1" d="M43.45,231.77v19.46L37.34,248,.66,251.23s-3.34-9.19,5-13.51S34,235.56,34,235.56Z"/><path class="cls-1" d="M284.08,615.68a4.55,4.55,0,0,1-4.61,4.49H83.07a4.55,4.55,0,0,1-4.61-4.49h0a4.55,4.55,0,0,1,4.61-4.48h196.4a4.55,4.55,0,0,1,4.61,4.48Z"/><path class="cls-1" d="M49.56,395.56c0,4.5-3.23,8.15-7.22,8.15h0c-4,0-7.23-3.65-7.23-8.15V269.79c0-4.5,3.24-8.15,7.23-8.15h0c4,0,7.22,3.65,7.22,8.15Z"/><path class="cls-1" d="M49.56,567.35c0,5.13-3.23,9.29-7.22,9.29h0c-4,0-7.23-4.16-7.23-9.29V423.81c0-5.13,3.24-9.29,7.23-9.29h0c4,0,7.22,4.16,7.22,9.29Z"/><path class="cls-1" d="M328,395.56c0,4.5-3.23,8.15-7.22,8.15h0c-4,0-7.23-3.65-7.23-8.15V269.79c0-4.5,3.24-8.15,7.23-8.15h0c4,0,7.22,3.65,7.22,8.15Z"/><path class="cls-1" d="M328,567.35c0,5.13-3.23,9.29-7.22,9.29h0c-4,0-7.23-4.16-7.23-9.29V423.81c0-5.13,3.24-9.29,7.23-9.29h0c4,0,7.22,4.16,7.22,9.29Z"/><path class="cls-1" d="M308.35,659.69c0,7.16-6.83,13-15.25,13h-116c-8.42,0-15.24-5.81-15.24-13V639.61c0-7.16,6.82-13,15.24-13h116c8.42,0,15.25,5.81,15.25,13Z"/><rect class="cls-5" x="178.12" y="636.56" width="56.96" height="26.67"/><polygon class="cls-2" points="64.57 623.76 76.24 649.17 137.37 650.8 150.71 624.84 142.92 624.84 132.92 645.39 80.13 644.85 70.68 622.14 62.9 620.52 64.57 623.76"/></g></g></svg>