<svg xmlns="http://www.w3.org/2000/svg" viewBox="0 0 440.04 1001.65"><defs><style>.cls-1{fill:#d81513;}.cls-2{fill:#385459;}.cls-3{fill:#e86f0c;}.cls-4{fill:#ff7f0b;}.cls-5{fill:#40413c;}.cls-6{fill:#ff9136;}</style></defs><title>truck_orange</title><g id="图层_2" data-name="图层 2"><g id="Layer_1" data-name="Layer 1"><polygon class="cls-1" points="185.1 3.06 181.16 0 126.56 41.88 128.8 43.41 126.56 61.61 137.74 61.61 137.74 49.5 141.03 51.74 185.1 3.06"/><polygon class="cls-1" points="254.93 3.06 258.88 0 313.48 41.88 311.24 43.41 313.48 61.61 302.3 61.61 302.3 49.5 299.01 51.74 254.93 3.06"/><rect class="cls-2" x="115.93" y="367.83" width="208.17" height="189.89"/><path class="cls-2" d="M331.19,64.74c0,6.77-6.61,12.27-14.75,12.27H129.63c-8.14,0-14.75-5.5-14.75-12.27h0c0-6.78,6.61-12.27,14.75-12.27H316.44c8.14,0,14.75,5.49,14.75,12.27Z"/><path class="cls-3" d="M369.34,111.29c-9.14-15.16-40.21-48.72-56.66-50.88-12.22-1.61-62.27-.83-87.2-.32-25.91-.51-77.94-1.29-90.64.32-17.1,2.16-49.41,35.72-58.91,50.88s-15.2,151.57-15.2,151.57H384S378.48,126.45,369.34,111.29Z"/><path class="cls-4" d="M222.35,70.51s-65.23-2.47-77.77,4-60.48,98-60.48,98l138.25,4Z"/><path class="cls-4" d="M222.35,70.51s65.22-2.47,77.76,4,60.49,98,60.49,98l-138.25,4Z"/><path class="cls-5" d="M361.73,260.69c0,7.18-9.18,13-20.52,13H103.48c-11.33,0-20.52-5.81-20.52-13V176.85c0-7.18,9.19-13,20.52-13H341.21c11.34,0,20.52,5.81,20.52,13Z"/><path class="cls-2" d="M349.76,271.22c0,7.17-8.53,13-19.05,13H110c-10.53,0-19.06-5.82-19.06-13V187.37c0-7.17,8.53-13,19.06-13H330.71c10.52,0,19.05,5.82,19.05,13Z"/><path class="cls-3" d="M383.88,243.69c-2.74-27.83-74-50.12-161.53-50.12S63.55,215.86,60.82,243.69h-.09v171.2H384V243.69Z"/><path class="cls-4" d="M110.68,268.37h.07c2.37-24.25,64.2-43.68,140.13-43.68,45.22,0,85.44,6.89,111.07,17.59-9.62-21.91-68.07-38.76-138.78-38.76C147.23,203.52,85.41,223,83,247.2H83V396.4h27.72Z"/><path class="cls-6" d="M313.28,332.68c0,7.18-9.19,13-20.53,13H176.45c-11.33,0-20.52-5.81-20.52-13v-43.3c0-7.18,9.19-13,20.52-13h116.3c11.34,0,20.53,5.81,20.53,13Z"/><path class="cls-4" d="M313.28,338.64c0,7.17-9.19,13-20.53,13H176.45c-11.33,0-20.52-5.82-20.52-13V295.33c0-7.17,9.19-13,20.52-13h116.3c11.34,0,20.53,5.82,20.53,13Z"/><polygon class="cls-5" points="90.28 175.75 57.52 164.27 0 165.91 1.46 171.92 54.6 169.19 83.73 184.49 90.28 175.75"/><polygon class="cls-5" points="349.76 175.75 382.52 164.27 440.04 165.91 438.58 171.92 385.44 169.19 356.31 184.49 349.76 175.75"/><path class="cls-4" d="M415.51,986.82a14.57,14.57,0,0,1-14.3,14.83H38.82a14.57,14.57,0,0,1-14.29-14.83V443.91a14.57,14.57,0,0,1,14.29-14.83H401.21a14.57,14.57,0,0,1,14.3,14.83Z"/><path class="cls-3" d="M401.21,429.08H333.07a14.57,14.57,0,0,1,14.3,14.83V986.82a14.57,14.57,0,0,1-14.3,14.83h68.14a14.57,14.57,0,0,0,14.3-14.83V443.91A14.57,14.57,0,0,0,401.21,429.08Z"/><rect class="cls-6" x="80.55" y="429.08" width="39.77" height="572.56"/><circle class="cls-3" cx="220.02" cy="704.02" r="67.54" transform="translate(-509.58 812.35) rotate(-81.09)"/><circle class="cls-4" cx="220.02" cy="704.02" r="57.24" transform="translate(-515.72 756.4) rotate(-76.72)"/><path class="cls-3" d="M198.56,730.58a3.71,3.71,0,0,1-3.71,3.71h0a3.7,3.7,0,0,1-3.7-3.71V676.84a3.7,3.7,0,0,1,3.7-3.7h0a3.71,3.71,0,0,1,3.71,3.7Z"/><path class="cls-3" d="M248.59,730.58a3.71,3.71,0,0,1-3.7,3.71h0a3.71,3.71,0,0,1-3.71-3.71V676.84a3.71,3.71,0,0,1,3.71-3.7h0a3.7,3.7,0,0,1,3.7,3.7Z"/></g></g></svg>