<svg xmlns="http://www.w3.org/2000/svg" viewBox="0 0 385.11 1029.92"><defs><style>.cls-1{fill:#40413c;}.cls-2{fill:#d81513;}.cls-3{fill:#f71e1e;}.cls-4{fill:#8e1616;}.cls-5{fill:#d3d3d3;}.cls-6{fill:#4848cc;}.cls-7{fill:#2974e2;}.cls-8{fill:#cdc4bd;}</style></defs><title>truck_red</title><g id="图层_2" data-name="图层 2"><g id="Layer_1" data-name="Layer 1"><path class="cls-1" d="M45.7,60.18H35.4S32,39.58,37.12,33.58,85.39,5,192.66,4.18,342.31,27.82,344.34,34.43c2.58,8.37.86,23.18.86,23.18Z"/><rect class="cls-2" x="25.96" y="484.98" width="342.41" height="532.93"/><polygon class="cls-3" points="106.63 46.45 39.69 50.74 39.69 248.12 75.73 247.26 106.63 46.45"/><polygon class="cls-3" points="274.35 43.74 341.27 48.27 340.56 245.66 304.52 244.67 274.35 43.74"/><path class="cls-2" d="M73.16,213.79s-2.58-18.88,7.72-76.37S98.9,25,122.93,13.84s118-16.74,141.82-1.29C290.93,29.53,295.43,93,304,136.77,312.5,180.08,321.17,249,321.17,249Z"/><path class="cls-1" d="M85.82,197.92s7.08-36,12.23-38,44.41-16.82,103-16.09c51.49.65,77.88,13.52,84.31,20.6s20.6,50.2,20.6,50.2Z"/><path class="cls-2" d="M50,491.85S53,380,54.92,342.74c2.36-45.11,3.6-144.59,21.24-157.69,30-22.32,93.33-21.11,121.65-21.89,47-1.29,92.47,4.29,107.06,28.32s24,91,29.18,151.9,9.44,149.32,9.44,149.32Z"/><path class="cls-3" d="M98.69,145.78C99.33,143.85,119.6,39.27,127,31.86c16.73-16.73,126.15-10.3,126.15-10.3l9,11.59S171.49,27.5,145,41.51c-15.47,8.2-30.25,95.26-30.25,95.26Z"/><path class="cls-3" d="M280.2,179.9a410.25,410.25,0,0,0-96.55-6.44c-37.18,2.12-88.49,10.34-93.33,15.45C78.74,201.14,64.58,474.68,64.58,474.68l27-2.57s4.51-263.25,12.87-274.19c3.6-4.71,46.9-11,86.25-13.52,52.05-3.28,107.49,7.08,107.49,7.08Z"/><rect class="cls-4" x="50.85" y="474.25" width="291.78" height="9.87"/><rect class="cls-4" x="187.3" y="188.91" width="25.75" height="290.92"/><rect class="cls-4" x="195.88" y="93.65" width="9.65" height="91.4"/><path class="cls-1" d="M210.68,91.88a2.93,2.93,0,0,1-2.78,3.06H193.51a2.93,2.93,0,0,1-2.78-3.06h0a2.93,2.93,0,0,1,2.78-3.06H207.9a2.93,2.93,0,0,1,2.78,3.06Z"/><rect class="cls-3" x="204.25" y="188.26" width="3.22" height="289.64"/><rect class="cls-3" x="200.38" y="94.29" width="1.93" height="88.82"/><path class="cls-1" d="M219.69,186.65a5.47,5.47,0,0,1-5.47,5.48H185.9a5.47,5.47,0,0,1-5.47-5.48h0a5.47,5.47,0,0,1,5.47-5.47h28.32a5.47,5.47,0,0,1,5.47,5.47Z"/><polygon class="cls-4" points="305.3 177.32 334.26 163.81 385.11 165.74 383.82 172.82 336.84 169.6 311.09 187.62 305.3 177.32"/><polygon class="cls-4" points="79.36 178.33 50.88 163.81 0 163.96 1.04 171.08 48.11 169.5 73.21 188.42 79.36 178.33"/><path class="cls-1" d="M74.23,28.64a6.44,6.44,0,0,1-6.44,6.44h0a6.43,6.43,0,0,1-6.43-6.44v-20a6.43,6.43,0,0,1,6.43-6.44h0a6.44,6.44,0,0,1,6.44,6.44Z"/><path class="cls-1" d="M308.51,26.39a6.44,6.44,0,0,1-6.43,6.44h0a6.44,6.44,0,0,1-6.44-6.44V6.44A6.44,6.44,0,0,1,302.08,0h0a6.43,6.43,0,0,1,6.43,6.44Z"/><polygon class="cls-5" points="177 144.71 161.77 146.21 161.55 5.26 177 4.18 177 144.71"/><polygon class="cls-5" points="232.56 146.21 217.12 144.71 216.69 3.11 231.71 4.4 232.56 146.21"/><circle class="cls-1" cx="125.4" cy="222.7" r="18.34" transform="translate(-120.74 153.9) rotate(-45)"/><circle class="cls-6" cx="125.4" cy="222.7" r="13.1"/><path class="cls-7" d="M122.89,221.15c1.23-2.67,4.59-4.92,6.08-7.27l-1.9-.47c-12.87-1.71-17,17.37-2.93,16.6C123.83,226.25,121,225.19,122.89,221.15Z"/><circle class="cls-1" cx="271.5" cy="222.7" r="18.34" transform="translate(-77.95 257.21) rotate(-45)"/><circle class="cls-6" cx="271.5" cy="222.7" r="13.1"/><path class="cls-7" d="M269,221.15c1.24-2.67,4.59-4.92,6.09-7.27l-1.91-.47c-12.87-1.71-17,17.37-2.93,16.6C269.93,226.25,267.11,225.19,269,221.15Z"/><path class="cls-8" d="M130.23,1023.06a5.16,5.16,0,0,1-5.15,5.15h0a5.15,5.15,0,0,1-5.15-5.15V491.42a5.14,5.14,0,0,1,5.15-5.15h0a5.15,5.15,0,0,1,5.15,5.15Z"/><path class="cls-8" d="M230.63,1023.06a5.15,5.15,0,0,1-5.14,5.15h0a5.15,5.15,0,0,1-5.15-5.15V491.42a5.14,5.14,0,0,1,5.15-5.15h0a5.14,5.14,0,0,1,5.14,5.15Z"/><rect class="cls-8" x="127.22" y="500.43" width="100.41" height="6.01"/><rect class="cls-8" x="126.37" y="538.65" width="100.41" height="6.01"/><rect class="cls-8" x="126.37" y="576.87" width="100.41" height="6.01"/><rect class="cls-8" x="124.65" y="615.09" width="100.41" height="6.01"/><rect class="cls-8" x="123.79" y="653.31" width="100.41" height="6.01"/><rect class="cls-8" x="127.22" y="691.54" width="100.41" height="6.01"/><rect class="cls-8" x="129.8" y="729.76" width="100.41" height="6.01"/><rect class="cls-8" x="128.08" y="767.98" width="100.41" height="6.01"/><rect class="cls-8" x="127.22" y="806.2" width="100.41" height="6.01"/><rect class="cls-8" x="128.94" y="844.43" width="100.41" height="6.01"/><rect class="cls-8" x="127.22" y="882.65" width="100.41" height="6.01"/><rect class="cls-8" x="126.37" y="920.87" width="100.41" height="6.01"/><rect class="cls-8" x="126.37" y="959.09" width="100.41" height="6.01"/><rect class="cls-8" x="125.51" y="997.31" width="100.41" height="6.01"/><path class="cls-8" d="M276.48,1024.78c0,2.84-1.23,5.14-2.75,5.14h0c-1.52,0-2.76-2.3-2.76-5.14V493.13c0-2.84,1.24-5.15,2.76-5.15h0c1.52,0,2.75,2.31,2.75,5.15Z"/><path class="cls-8" d="M330.19,1024.78c0,2.84-1.24,5.14-2.76,5.14h0c-1.52,0-2.75-2.3-2.75-5.14V493.13c0-2.84,1.23-5.15,2.75-5.15h0c1.52,0,2.76,2.31,2.76,5.15Z"/><rect class="cls-8" x="274.87" y="502.14" width="53.71" height="6.01"/><rect class="cls-8" x="274.42" y="540.36" width="53.71" height="6.01"/><rect class="cls-8" x="274.42" y="578.59" width="53.71" height="6.01"/><rect class="cls-8" x="273.5" y="616.81" width="53.71" height="6.01"/><rect class="cls-8" x="273.04" y="655.03" width="53.71" height="6.01"/><rect class="cls-8" x="274.87" y="693.25" width="53.71" height="6.01"/><rect class="cls-8" x="276.25" y="731.48" width="53.71" height="6.01"/><rect class="cls-8" x="275.33" y="769.7" width="53.71" height="6.01"/><rect class="cls-8" x="274.87" y="807.92" width="53.71" height="6.01"/><rect class="cls-8" x="275.79" y="846.14" width="53.71" height="6.01"/><rect class="cls-8" x="274.87" y="884.36" width="53.71" height="6.01"/><rect class="cls-8" x="274.42" y="922.59" width="53.71" height="6.01"/><rect class="cls-8" x="274.42" y="960.81" width="53.71" height="6.01"/><rect class="cls-8" x="273.96" y="999.03" width="53.71" height="6.01"/></g></g></svg>